<svg width="100" height="105" viewBox="0 0 100 105" fill="none" xmlns="http://www.w3.org/2000/svg">
<g opacity="0.9">
<path d="M35.5781 61.8893C34.4615 63.3212 33.3525 64.4988 32.4702 65.3868C31.2055 62.1713 28.9195 59.8914 26.6345 58.2982C24.0798 56.5169 21.4215 55.5246 20.0534 55.0139C19.9189 54.9637 19.7968 54.9181 19.6886 54.8769C13.8277 52.0929 10.5695 49.287 8.84982 47.0158C8.45499 46.4943 8.14487 46.0069 7.90293 45.5584C9.38736 46.302 10.9667 46.7615 12.4578 47.0339C15.1518 47.5259 17.7265 47.439 19.3237 47.1966L24.1869 46.4585L19.7393 44.3574C9.85472 39.6875 5.04948 34.9566 2.94691 31.1252C1.79791 29.0314 1.44721 27.2005 1.50632 25.7389C2.84705 27.437 4.43012 28.8738 5.98516 30.0432C8.35659 31.8264 10.7487 33.0518 12.3276 33.672L17.4636 35.6896L14.0559 31.3495C13.265 30.3423 9.82977 24.8442 6.84275 18.4266C5.35691 15.2343 4.00879 11.8703 3.15966 8.77283C2.8677 7.70782 2.64107 6.69629 2.4859 5.75C13.1714 21.1023 26.6061 30.6052 32.5378 33.6627C33.0309 33.9519 33.7982 34.6141 34.7063 35.6576C35.6072 36.693 36.5746 38.0204 37.4628 39.5273C39.2522 42.5637 40.6223 46.1622 40.6294 49.4535C40.4487 54.4536 38.0411 58.7311 35.5781 61.8893Z" stroke="#311250" stroke-width="3"/>
<path d="M64.8303 61.8956C65.924 63.3136 67.0102 64.4822 67.8785 65.367C69.1305 62.1667 71.385 59.8937 73.6419 58.3026C76.1707 56.5197 78.8025 55.5264 80.1556 55.0157C80.2882 54.9657 80.4085 54.9203 80.5153 54.8792C86.3083 52.0967 89.5289 49.2925 91.229 47.022C91.6168 46.5042 91.922 46.0198 92.1608 45.5734C90.7009 46.3076 89.1498 46.7626 87.6844 47.0332C85.0163 47.526 82.4662 47.4391 80.8833 47.1962L76.0725 46.4579L80.4643 44.36C90.2365 39.692 94.9876 34.963 97.0672 31.1312C98.195 29.0532 98.546 27.2328 98.4946 25.7747C97.1756 27.4545 95.6226 28.8778 94.0964 30.0383C91.7499 31.8223 89.3824 33.0487 87.8186 33.6698L82.7063 35.7004L86.0802 31.3558C86.8624 30.3485 90.26 24.8502 93.2144 18.4322C94.6839 15.2398 96.0175 11.8752 96.8576 8.77681C97.1409 7.73187 97.3621 6.73808 97.5154 5.80664C86.9546 21.1214 73.6953 30.604 67.8333 33.6592C67.3481 33.9471 66.5905 34.6079 65.6924 35.6513C64.8016 36.6865 63.8448 38.0138 62.9663 39.521C61.1965 42.5574 59.84 46.1582 59.833 49.4537C60.0119 54.4587 62.3951 58.7383 64.8303 61.8956Z" stroke="#311250" stroke-width="3"/>
<path d="M49.7104 60.3508C63.0817 60.3508 73.9213 49.5112 73.9213 36.1399C73.9213 22.7685 63.0817 11.929 49.7104 11.929C36.3391 11.929 25.4995 22.7685 25.4995 36.1399C25.4995 49.5112 36.3391 60.3508 49.7104 60.3508Z" fill="#311250" stroke="#311250"/>
<path d="M49.905 80.5919L62.7548 70.9431L49.3649 85.6838L36.044 70.9505L48.8226 80.5907C49.1428 80.8323 49.5842 80.8328 49.905 80.5919Z" fill="#311250" stroke="#311250"/>
<path d="M49.8941 91.6532L59.0611 85.1438L49.3733 95.2294L39.737 85.1506L48.8503 91.652C49.1625 91.8747 49.5814 91.8752 49.8941 91.6532Z" fill="#311250" stroke="#311250"/>
<path d="M49.8668 101.54L55.2369 98.1008L49.3817 103.599L43.5598 98.1066L48.8944 101.539C49.1904 101.73 49.5703 101.73 49.8668 101.54Z" fill="#311250" stroke="#311250"/>
</g>
<path d="M39.3535 33.6465L49.3535 43.6465" stroke="#FBEF03" stroke-width="3" stroke-linecap="round"/>
<path d="M59.6465 33.6465L49.6465 43.6465" stroke="#FBEF03" stroke-width="3" stroke-linecap="round"/>
</svg>
