<svg width="45" height="45" viewBox="0 0 45 45" fill="none" xmlns="http://www.w3.org/2000/svg">
<g clip-path="url(#clip0_1288_34)">
<mask id="mask0_1288_34" style="mask-type:luminance" maskUnits="userSpaceOnUse" x="0" y="0" width="45" height="45">
<path d="M0.5 0.5H44.5V44.5H0.5V0.5Z" fill="white" stroke="white"/>
</mask>
<g mask="url(#mask0_1288_34)">
<path d="M37 0.5H8C3.85786 0.5 0.5 3.85786 0.5 8V37C0.5 41.1421 3.85786 44.5 8 44.5H37C41.1421 44.5 44.5 41.1421 44.5 37V8C44.5 3.85786 41.1421 0.5 37 0.5Z" fill="#311250" stroke="#595C61"/>
<path d="M24.1551 12C24.5203 12.1133 24.9064 12.1805 25.2422 12.3484C26.4217 12.9444 27.0598 13.9267 27.1269 15.2489C27.1563 15.8323 27.1395 16.42 27.1311 17.0077C27.1269 17.503 26.7575 17.8682 26.2832 17.8598C25.8215 17.8556 25.4647 17.4946 25.4563 17.0077C25.4479 16.4914 25.4563 15.9751 25.4521 15.4588C25.4479 14.3842 24.7385 13.6748 23.664 13.6748C20.9314 13.6748 18.203 13.6748 15.4704 13.6748C14.3874 13.679 13.678 14.3884 13.678 15.4756C13.678 20.3069 13.678 25.1425 13.678 29.9738C13.678 31.0736 14.3874 31.7788 15.4872 31.7788C18.203 31.7788 20.923 31.7788 23.6388 31.7788C24.7511 31.7788 25.4521 31.0736 25.4521 29.9571C25.4521 29.4701 25.4479 28.979 25.4521 28.4921C25.4563 27.9632 25.8089 27.5896 26.2958 27.5938C26.7743 27.598 27.1269 27.9674 27.1269 28.4837C27.1227 29.1805 27.1563 29.8857 27.0808 30.5741C26.9087 32.1482 25.5235 33.3906 23.941 33.4494C23.4247 33.4662 22.9084 33.4578 22.3921 33.4578C20.0751 33.4578 17.7538 33.4578 15.4368 33.4578C13.9299 33.4578 12.6748 32.5931 12.2005 31.1953C12.0788 30.8385 12.0158 30.444 12.0158 30.0662C11.999 25.1677 11.9948 20.2733 12.0032 15.379C12.0074 13.6664 13.1911 12.3064 14.8827 12.0378C14.9163 12.0336 14.9457 12.0126 14.9751 12C18.0351 12 21.0951 12 24.1551 12Z" fill="#FBEF03"/>
<path d="M31.1319 21.9313C30.6575 21.4612 30.2252 21.0414 29.8054 20.6133C29.4654 20.2649 29.4528 19.7779 29.7593 19.4421C30.0657 19.1063 30.582 19.0518 30.9052 19.3666C31.6104 20.0466 32.303 20.7308 32.9746 21.4444C33.281 21.7676 33.4069 22.1873 33.4279 22.6491C33.4615 23.3584 33.2012 23.9167 32.7017 24.3994C32.1225 24.9577 31.5684 25.537 30.9933 26.0994C30.6533 26.431 30.1958 26.4604 29.8558 26.1876C29.4612 25.8644 29.4319 25.3187 29.8012 24.9325C30.1748 24.5463 30.561 24.1686 30.9388 23.7908C30.9849 23.7446 31.0311 23.6942 31.1067 23.6103C30.9933 23.6103 30.922 23.6103 30.8464 23.6103C27.6185 23.6103 24.3948 23.6103 21.1669 23.6103C20.701 23.6103 20.3862 23.4088 20.2602 23.0436C20.0839 22.5231 20.4407 21.9858 20.9906 21.9397C21.0746 21.9313 21.1585 21.9355 21.2425 21.9355C24.441 21.9355 27.6395 21.9355 30.838 21.9355C30.9136 21.9313 30.9891 21.9313 31.1319 21.9313Z" fill="#FBEF03"/>
</g>
</g>
<defs>
<clipPath id="clip0_1288_34">
<rect width="45" height="45" fill="white"/>
</clipPath>
</defs>
</svg>
