<svg width="60" height="60" viewBox="0 0 60 60" fill="none" xmlns="http://www.w3.org/2000/svg">
<g clip-path="url(#clip0_80_10)">
<mask id="mask0_80_10" style="mask-type:luminance" maskUnits="userSpaceOnUse" x="0" y="0" width="60" height="60">
<path d="M60 0H0V60H60V0Z" fill="white"/>
</mask>
<g mask="url(#mask0_80_10)">
<path d="M30 59.5C46.2924 59.5 59.5 46.2924 59.5 30C59.5 13.7076 46.2924 0.5 30 0.5C13.7076 0.5 0.5 13.7076 0.5 30C0.5 46.2924 13.7076 59.5 30 59.5Z" fill="#311250" stroke="#595C61"/>
<path d="M31.7314 43.5019C31.2564 43.4277 30.7814 43.3683 30.3137 43.2644C28.3839 42.8413 26.7287 41.9135 25.3333 40.5107C24.8508 40.0282 24.3609 39.5383 23.8785 39.0559C22.2233 37.3932 22.5796 34.8399 24.6133 33.6746C24.6356 33.6598 24.6578 33.6449 24.7098 33.6078C24.643 33.5336 24.5762 33.4594 24.5094 33.3926C23.2253 32.1085 21.9338 30.8318 20.6646 29.5329C19.1949 28.041 19.425 25.6213 21.1322 24.4337C22.446 23.5207 24.2199 23.6766 25.3852 24.8196C26.6248 26.0443 27.8495 27.2839 29.0816 28.516C29.1558 28.5902 29.2078 28.6719 29.2969 28.7832C29.4973 28.5754 29.6606 28.4047 29.8239 28.234C30.3954 27.655 30.9743 27.0761 31.5533 26.5045C34.0101 24.0477 37.662 24.1887 39.9406 26.8237C41.6849 28.8426 42.5162 31.1807 42.4569 33.8453C42.3455 38.4398 38.7976 42.5593 34.2773 43.3238C33.9136 43.3832 33.5499 43.4351 33.1862 43.4945C32.6889 43.5019 32.2065 43.5019 31.7314 43.5019ZM32.4366 41.2603C32.5999 41.2603 32.7706 41.2678 32.9339 41.2603C33.1862 41.2381 33.4312 41.2158 33.6761 41.1713C36.6896 40.6146 38.7902 38.9 39.7848 36.0127C40.7868 33.1105 40.1856 30.4458 38.1221 28.1597C36.7193 26.601 34.6188 26.5936 33.1343 28.0707C32.1545 29.043 31.1822 30.0228 30.2024 31.0025C29.5938 31.6112 29 31.6037 28.3913 30.9951C27.0701 29.6739 25.7489 28.3453 24.4203 27.0241C24.1977 26.8014 23.9824 26.5713 23.7449 26.3561C23.0991 25.7846 22.0971 26.126 21.9264 26.9721C21.8373 27.4175 22.008 27.7589 22.3198 28.0707C24.8879 30.6388 27.4561 33.2144 30.0168 35.7826C30.5067 36.2799 30.529 36.9702 30.0836 37.4229C29.6309 37.8757 28.948 37.8534 28.4507 37.3636C27.9683 36.8885 27.4932 36.4061 27.0182 35.931C26.506 35.4263 25.8232 35.3966 25.363 35.8642C24.9102 36.3244 24.9399 36.9999 25.4372 37.4972C25.9345 37.9945 26.4318 38.4992 26.9291 38.9891C28.4656 40.4884 30.2989 41.2381 32.4366 41.2603Z" fill="#FBEF03"/>
<path d="M28.8368 15C29.4083 15.0891 29.9872 15.1559 30.5588 15.2821C33.5055 15.9204 35.8955 17.4568 37.7363 19.8469C38.1519 20.3887 38.0777 21.0641 37.573 21.4575C37.0682 21.8435 36.4002 21.747 35.9771 21.2052C34.2551 18.9933 32.0061 17.6721 29.2301 17.3158C26.5135 16.9669 24.0641 17.6869 21.8745 19.3421C21.8448 19.3644 21.8077 19.3718 21.778 19.3941C21.7854 19.4164 21.8003 19.4386 21.8077 19.4609C22.0155 19.4609 22.2234 19.4609 22.4312 19.4609C23.0695 19.4757 23.552 19.9508 23.552 20.5668C23.5594 21.1829 23.0769 21.6802 22.446 21.6876C21.3327 21.695 20.2267 21.695 19.1134 21.6876C18.4825 21.6802 18.0074 21.2052 18 20.5743C18 19.4535 18 18.3401 18.0074 17.2267C18.0148 16.5958 18.5121 16.1134 19.1208 16.1208C19.722 16.1282 20.2045 16.6032 20.2193 17.2193C20.2267 17.3974 20.2193 17.5682 20.2193 17.7834C20.3084 17.724 20.3678 17.6943 20.4197 17.6498C22.3495 16.1356 24.5392 15.2672 26.9812 15.052C27.0405 15.0445 27.0999 15.0223 27.1667 15.0074C27.7308 15 28.2801 15 28.8368 15Z" fill="#FBEF03"/>
</g>
</g>
<defs>
<clipPath id="clip0_80_10">
<rect width="60" height="60" fill="white"/>
</clipPath>
</defs>
</svg>
