<svg width="60" height="60" viewBox="0 0 60 60" fill="none" xmlns="http://www.w3.org/2000/svg">
<g clip-path="url(#clip0_83_40)">
<mask id="mask0_83_40" style="mask-type:luminance" maskUnits="userSpaceOnUse" x="0" y="0" width="60" height="60">
<path d="M60 0H0V60H60V0Z" fill="white"/>
</mask>
<g mask="url(#mask0_83_40)">
<path d="M30 59.5C46.2924 59.5 59.5 46.2924 59.5 30C59.5 13.7076 46.2924 0.5 30 0.5C13.7076 0.5 0.5 13.7076 0.5 30C0.5 46.2924 13.7076 59.5 30 59.5Z" fill="#311250" stroke="#595C61"/>
<path d="M28.7284 43.5019C29.2034 43.4277 29.6785 43.3683 30.1461 43.2644C32.0759 42.8413 33.7311 41.9135 35.1266 40.5107C35.609 40.0282 36.0989 39.5383 36.5814 39.0559C38.2366 37.3932 37.8803 34.8399 35.8465 33.6746C35.8243 33.6598 35.802 33.6449 35.75 33.6078C35.8168 33.5336 35.8836 33.4594 35.9504 33.3926C37.2345 32.1085 38.526 30.8318 39.7953 29.5329C41.2649 28.041 41.0348 25.6213 39.3277 24.4337C38.0139 23.5207 36.2399 23.6766 35.0746 24.8196C33.835 26.0443 32.6103 27.2839 31.3782 28.516C31.304 28.5902 31.252 28.6719 31.163 28.7832C30.9626 28.5754 30.7993 28.4047 30.636 28.234C30.0644 27.655 29.4855 27.0761 28.9065 26.5045C26.4497 24.0477 22.7979 24.1887 20.5192 26.8237C18.7749 28.8426 17.9436 31.1807 18.003 33.8453C18.1143 38.4398 21.6622 42.5593 26.1825 43.3238C26.5462 43.3832 26.9099 43.4351 27.2736 43.4945C27.7709 43.5019 28.2534 43.5019 28.7284 43.5019ZM28.0233 41.2603C27.86 41.2603 27.6893 41.2678 27.526 41.2603C27.2736 41.2381 27.0287 41.2158 26.7837 41.1713C23.7702 40.6146 21.6697 38.9 20.6751 36.0127C19.673 33.1105 20.2743 30.4458 22.3377 28.1597C23.7405 26.601 25.8411 26.5936 27.3256 28.0707C28.3053 29.043 29.2777 30.0228 30.2574 31.0025C30.8661 31.6112 31.4599 31.6037 32.0685 30.9951C33.3897 29.6739 34.7109 28.3453 36.0395 27.0241C36.2622 26.8014 36.4774 26.5713 36.715 26.3561C37.3607 25.7846 38.3627 26.126 38.5335 26.9721C38.6225 27.4175 38.4518 27.7589 38.1401 28.0707C35.5719 30.6388 33.0037 33.2144 30.443 35.7826C29.9531 36.2799 29.9308 36.9702 30.3762 37.4229C30.829 37.8757 31.5118 37.8534 32.0091 37.3636C32.4916 36.8885 32.9666 36.4061 33.4417 35.931C33.9538 35.4263 34.6367 35.3966 35.0969 35.8642C35.5496 36.3244 35.5199 36.9999 35.0226 37.4972C34.5253 37.9945 34.028 38.4992 33.5307 38.9891C31.9943 40.4884 30.1609 41.2381 28.0233 41.2603Z" fill="#FBEF03"/>
<path d="M31.6231 15C31.0516 15.0891 30.4726 15.1559 29.9011 15.2821C26.9544 15.9204 24.5643 17.4568 22.7236 19.8469C22.3079 20.3887 22.3821 21.0641 22.8869 21.4575C23.3916 21.8435 24.0596 21.747 24.4827 21.2052C26.2047 18.9933 28.4537 17.6721 31.2297 17.3158C33.9463 16.9669 36.3957 17.6869 38.5853 19.3421C38.615 19.3644 38.6521 19.3718 38.6818 19.3941C38.6744 19.4164 38.6596 19.4386 38.6521 19.4609C38.4443 19.4609 38.2365 19.4609 38.0286 19.4609C37.3903 19.4757 36.9079 19.9508 36.9079 20.5668C36.9004 21.1829 37.3829 21.6802 38.0138 21.6876C39.1272 21.695 40.2331 21.695 41.3465 21.6876C41.9774 21.6802 42.4524 21.2052 42.4598 20.5743C42.4598 19.4535 42.4598 18.3401 42.4524 17.2267C42.445 16.5958 41.9477 16.1134 41.3391 16.1208C40.7378 16.1282 40.2554 16.6032 40.2405 17.2193C40.2331 17.3974 40.2405 17.5682 40.2405 17.7834C40.1515 17.724 40.0921 17.6943 40.0401 17.6498C38.1103 16.1356 35.9207 15.2672 33.4787 15.052C33.4193 15.0445 33.3599 15.0223 33.2931 15.0074C32.729 15 32.1798 15 31.6231 15Z" fill="#FBEF03"/>
</g>
</g>
<defs>
<clipPath id="clip0_83_40">
<rect width="60" height="60" fill="white"/>
</clipPath>
</defs>
</svg>
