<svg width="60" height="60" viewBox="0 0 60 60" fill="none" xmlns="http://www.w3.org/2000/svg">
<g clip-path="url(#clip0_83_40)">
<mask id="mask0_83_40" style="mask-type:luminance" maskUnits="userSpaceOnUse" x="0" y="0" width="60" height="60">
<path d="M60 0H0V60H60V0Z" fill="white"/>
</mask>
<g mask="url(#mask0_83_40)">
<path d="M30 59.5C46.2924 59.5 59.5 46.2924 59.5 30C59.5 13.7076 46.2924 0.5 30 0.5C13.7076 0.5 0.5 13.7076 0.5 30C0.5 46.2924 13.7076 59.5 30 59.5Z" fill="#311250" stroke="#595C61"/>
<path d="M27.0641 45.0418C26.9047 44.8993 26.7286 44.7819 26.5861 44.6225C25.9991 43.9433 25.4037 43.264 24.8418 42.568C24.6406 42.3248 24.4477 42.2578 24.1458 42.2997C23.215 42.4255 22.2842 42.5345 21.3534 42.6351C20.6909 42.7022 20.4058 42.3248 20.649 41.6959C21.3869 39.8091 22.1249 37.914 22.8628 36.0272C22.9467 35.8175 22.9467 35.6414 22.8628 35.4234C22.6699 34.9119 22.519 34.3836 22.3681 33.8637C22.1752 33.176 21.7894 32.6393 21.1941 32.2452C20.7496 31.9601 20.322 31.6498 19.9027 31.3312C19.2067 30.8029 18.9802 30.1152 19.2486 29.2851C19.4163 28.7651 19.5924 28.2452 19.7769 27.7337C20.0033 27.1048 19.9949 26.4758 19.7769 25.8385C19.5672 25.2264 19.3576 24.6226 19.1983 24.0021C19.0054 23.2725 19.3157 22.7023 19.8775 22.2578C20.2968 21.9308 20.7412 21.6205 21.1941 21.327C21.8062 20.9245 22.192 20.3878 22.3848 19.6834C22.519 19.1887 22.6699 18.6939 22.846 18.2075C23.1563 17.3522 23.6762 16.9664 24.5819 16.9413C25.1186 16.9245 25.6553 16.9329 26.1919 16.9497C26.8963 16.9748 27.5085 16.7652 28.062 16.3207C28.4645 15.9937 28.8754 15.6834 29.303 15.3899C30.0578 14.87 30.7538 14.87 31.5085 15.3899C31.9362 15.6834 32.3471 15.9937 32.7496 16.3207C33.303 16.7652 33.9152 16.9748 34.6196 16.9497C35.1647 16.9245 35.7097 16.9245 36.2632 16.9413C37.1185 16.9664 37.672 17.3606 37.9655 18.174C38.1416 18.6771 38.3009 19.197 38.4435 19.7086C38.6363 20.3878 39.0053 20.9161 39.6007 21.3019C40.0451 21.587 40.4728 21.8972 40.8921 22.2159C41.6133 22.7694 41.8229 23.4067 41.563 24.2872C41.412 24.7987 41.2275 25.3102 41.0514 25.8134C40.8166 26.4675 40.825 27.1048 41.0514 27.7589C41.2611 28.3626 41.4707 28.9748 41.63 29.5953C41.7894 30.2075 41.5797 30.7442 41.1101 31.1467C40.6992 31.4989 40.2548 31.8259 39.7936 32.1194C39.0556 32.5806 38.6028 33.2096 38.3848 34.0565C38.259 34.5764 38.0493 35.0712 37.8984 35.5911C37.8649 35.7085 37.89 35.8595 37.9403 35.9769C38.6783 37.8888 39.433 39.7924 40.1709 41.7043C40.4141 42.3332 40.1374 42.7106 39.4665 42.6435C38.5525 42.5513 37.6384 42.4422 36.7328 42.3165C36.4057 42.2661 36.1793 42.3165 35.9529 42.6016C35.3827 43.3227 34.7705 44.0104 34.1668 44.698C34.0494 44.8322 33.89 44.9328 33.7475 45.0502C33.6468 45.0502 33.5546 45.0502 33.454 45.0502C33.2024 44.9328 33.0598 44.7315 32.9592 44.4716C32.2297 42.5848 31.4833 40.698 30.7538 38.8028C30.6867 38.6351 30.628 38.5345 30.41 38.5345C30.2003 38.5345 30.1248 38.6184 30.0578 38.7861C29.3366 40.6393 28.607 42.4926 27.8942 44.3458C27.7852 44.6225 27.6762 44.8825 27.4163 45.0418C27.2989 45.0418 27.1815 45.0418 27.0641 45.0418ZM25.5546 18.1237C25.3366 18.1237 24.9844 18.1237 24.6322 18.1237C24.28 18.1153 24.0536 18.2746 23.953 18.61C23.8356 18.979 23.7014 19.348 23.6091 19.7253C23.324 20.9329 22.6616 21.8469 21.605 22.4926C21.2444 22.7107 20.9006 22.979 20.5651 23.239C20.3639 23.3899 20.28 23.6079 20.3723 23.8595C20.5232 24.3039 20.6574 24.7568 20.8251 25.1928C21.2108 26.2075 21.2528 27.2306 20.867 28.2536C20.7161 28.6645 20.5651 29.0754 20.431 29.4947C20.2633 29.9978 20.3136 30.1572 20.7412 30.4758C21.0263 30.6939 21.3282 30.9035 21.6385 31.088C22.6867 31.7253 23.3408 32.6393 23.6259 33.8301C23.7265 34.2326 23.8691 34.6351 24.0033 35.0293C24.0871 35.2892 24.2716 35.4318 24.5483 35.4318C25.0096 35.4318 25.4708 35.4486 25.9236 35.4234C27.1144 35.3479 28.1542 35.7085 29.0599 36.4884C29.3785 36.7567 29.7307 36.9999 30.0745 37.2347C30.3093 37.394 30.5525 37.394 30.7873 37.2347C31.106 37.0083 31.4414 36.7987 31.7265 36.5387C32.6825 35.7001 33.7726 35.3228 35.0473 35.4234C35.4665 35.4569 35.8858 35.4318 36.3051 35.4318C36.5818 35.4318 36.7663 35.2808 36.8502 35.0293C36.9844 34.6435 37.1269 34.2578 37.2192 33.8553C37.5043 32.631 38.1835 31.7001 39.2653 31.0461C39.6175 30.8364 39.9361 30.5765 40.2632 30.3333C40.4728 30.1739 40.5567 29.9559 40.4644 29.6876C40.3135 29.2515 40.1877 28.8155 40.02 28.3878C39.6007 27.306 39.5923 26.241 40.02 25.1593C40.1542 24.8155 40.2716 24.4633 40.389 24.1111C40.5734 23.5576 40.5147 23.3815 40.0368 23.0377C39.7265 22.8197 39.4162 22.6016 39.0892 22.392C38.1584 21.805 37.5462 20.9748 37.2611 19.9098C37.1521 19.4989 37.0347 19.0796 36.8921 18.6771C36.7244 18.1991 36.5986 18.1153 36.0955 18.1069C35.6846 18.1069 35.2737 18.1069 34.8628 18.1237C33.9739 18.1572 33.1269 18.023 32.3806 17.5031C32.0368 17.2599 31.7097 17 31.3743 16.7484C30.4267 16.0189 30.3932 16.0272 29.4372 16.7484C28.9592 17.109 28.4896 17.4696 27.9697 17.7631C27.2737 18.1824 26.4771 18.1656 25.5546 18.1237ZM27.0221 43.3144C27.7014 41.5701 28.3638 39.8846 29.0179 38.1907C29.0431 38.1152 28.9844 37.9727 28.9173 37.914C28.649 37.6875 28.3555 37.4947 28.0871 37.2599C27.5085 36.7651 26.8293 36.5806 26.0829 36.5974C25.3701 36.6142 24.6657 36.5974 23.911 36.5974C23.3073 38.132 22.6867 39.7253 22.0494 41.3605C22.8712 41.2599 23.6427 41.1928 24.4058 41.0754C24.8586 40.9999 25.1857 41.1089 25.4792 41.4779C25.9571 42.0984 26.4854 42.677 27.0221 43.3144ZM33.7894 43.306C34.368 42.6351 34.9131 42.0062 35.4414 41.3689C35.6594 41.1089 35.911 41.0167 36.238 41.0586C36.9676 41.1592 37.6888 41.2431 38.4183 41.3269C38.5189 41.3353 38.6196 41.3437 38.7621 41.3521C38.1248 39.7253 37.5043 38.132 36.9089 36.6142C36.2296 36.6142 35.5923 36.6477 34.9634 36.6058C34.0494 36.5471 33.2443 36.7651 32.5567 37.3857C32.3051 37.6121 31.8691 37.7714 31.802 38.0397C31.7265 38.3165 31.9865 38.6854 32.1123 39.0125C32.6657 40.4297 33.2192 41.8469 33.7894 43.306Z" fill="#FBEF03"/>
<path d="M38.1331 26.7944C38.0996 31.0711 34.6363 34.5176 30.3931 34.5008C26.1415 34.4841 22.6782 31.0711 22.695 26.7608C22.7202 22.459 26.2002 19.0292 30.435 19.0627C34.695 19.0963 38.1583 22.5764 38.1331 26.7944ZM23.8774 26.7692C23.8522 30.3583 26.7705 33.3017 30.3763 33.3185C33.9738 33.3352 36.8836 30.4505 36.9256 26.8195C36.9675 23.2388 34.0241 20.2703 30.4099 20.2451C26.8375 20.2284 23.9025 23.1466 23.8774 26.7692Z" fill="#FBEF03"/>
<path d="M33.4037 30.2744C33.4037 30.8278 32.9676 31.0962 32.5064 30.8614C31.8775 30.5511 31.2569 30.2157 30.6364 29.8802C30.4687 29.788 30.3429 29.788 30.1752 29.8802C29.5882 30.2073 28.9844 30.5092 28.389 30.8278C28.1374 30.962 27.8943 31.0123 27.6511 30.8362C27.4079 30.6517 27.3827 30.4001 27.433 30.1234C27.5504 29.4442 27.6762 28.7565 27.7769 28.0689C27.7936 27.9683 27.7433 27.8173 27.6678 27.7503C27.1899 27.2639 26.6951 26.7859 26.2003 26.3163C25.9907 26.115 25.8481 25.8886 25.9488 25.5867C26.0494 25.2849 26.301 25.201 26.5945 25.1591C27.2737 25.0668 27.9446 24.9746 28.6238 24.8572C28.7244 24.8404 28.8418 24.7398 28.8922 24.6475C29.2024 24.0438 29.5043 23.4232 29.8062 22.8111C29.932 22.5427 30.1081 22.3415 30.4184 22.3499C30.7202 22.3582 30.8796 22.5511 31.0054 22.8111C31.2989 23.4232 31.6007 24.0438 31.9194 24.6475C31.9697 24.7482 32.1039 24.8404 32.2129 24.8656C32.8838 24.983 33.563 25.0668 34.2422 25.1675C34.519 25.2094 34.7621 25.3016 34.8544 25.5867C34.9466 25.8719 34.8292 26.0983 34.628 26.2911C34.1332 26.7607 33.6385 27.2387 33.1605 27.7251C33.0766 27.809 33.0263 27.9767 33.0431 28.0941C33.1353 28.7482 33.2611 29.4022 33.3701 30.0563C33.3869 30.1486 33.3953 30.2408 33.4037 30.2744ZM32.9676 26.1821C32.5483 26.115 32.129 26.0396 31.7014 25.9976C31.3492 25.9641 31.1395 25.788 30.997 25.4777C30.8209 25.092 30.628 24.7146 30.41 24.287C30.1836 24.7398 29.9907 25.1255 29.8062 25.5197C29.672 25.8048 29.4708 25.9557 29.1605 25.9893C28.7244 26.0396 28.2884 26.115 27.8775 26.1821C28.1961 26.5176 28.4896 26.853 28.8083 27.1716C29.0096 27.3729 29.0934 27.5909 29.0347 27.8844C28.9425 28.3289 28.8838 28.7733 28.7999 29.2681C29.2444 29.0333 29.6217 28.8488 29.9991 28.6308C30.2926 28.463 30.5609 28.4714 30.8544 28.6308C31.2234 28.8404 31.6091 29.0333 32.0368 29.2513C31.9613 28.8069 31.9194 28.4211 31.8272 28.0438C31.7181 27.6161 31.8355 27.2974 32.171 27.0039C32.4477 26.7775 32.6909 26.4756 32.9676 26.1821Z" fill="#FBEF03"/>
</g>
</g>
<defs>
<clipPath id="clip0_83_40">
<rect width="60" height="60" fill="white"/>
</clipPath>
</defs>
</svg>
