<svg width="45" height="41" viewBox="0 0 45 41" fill="none" xmlns="http://www.w3.org/2000/svg">
<path d="M22.4 40.8002C19.9 40.8002 17.5 40.8002 15.1 40.1002C7.40001 37.8002 2.60001 32.9002 0.500009 25.2002C0.300009 24.5002 0.200009 23.7002 0.100009 22.9002C8.92021e-06 22.4002 0.300009 22.1002 0.700009 22.0002C1.10001 21.9002 1.40001 22.2002 1.50001 22.7002C1.80001 24.8002 2.40001 26.9002 3.40001 28.8002C6.40001 34.4002 11 37.9002 17.3 39.0002C27.3 40.7002 36.9 34.1002 39 24.2002C41 14.1002 34.5 4.10018 24.2 1.90018C14.1 -0.299815 4.00001 6.30019 1.80001 16.5002C1.70001 17.1002 1.60001 17.7002 1.50001 18.2002C1.40001 18.7002 1.10001 18.9002 0.700009 18.9002C0.300009 18.9002 8.92021e-06 18.5002 0.100009 18.0002C0.400009 14.8002 1.50001 11.9002 3.30001 9.30019C6.70001 4.20019 11.5 1.20018 17.6 0.300185C20.3 -0.0998151 23 0.000184901 25.8 0.100185C30.4 0.400185 34.4 2.00019 37.8 5.00019C41.8 8.40019 44 12.8002 44.7 18.0002C45.9 27.4002 40.1 36.6002 31.1 39.6002C28.4 40.5002 25.7 40.8002 22.9 40.7002C22.8 40.8002 22.6 40.8002 22.4 40.8002ZM40.5 24.2002C41.2 24.2002 42 24.2002 42.7 24.2002C43 24.2002 43.1 24.1002 43.2 23.8002C43.3 23.1002 43.4 22.3002 43.5 21.6002C43.5 21.0002 43.5 20.4002 43.5 19.8002C42.6 19.8002 41.7 19.8002 40.9 19.8002C40.7 21.3002 40.6 22.7002 40.5 24.2002ZM43.4 19.0002C43.3 17.5002 43 16.2002 42.6 14.8002C42.6 14.7002 42.4 14.6002 42.4 14.6002C41.6 14.6002 40.8 14.6002 40 14.6002C40.3 16.1002 40.5 17.6002 40.8 19.0002C41.6 19.0002 42.4 19.0002 43.4 19.0002ZM38.7 29.4002C39.4 29.4002 40.1 29.4002 40.7 29.4002C41 29.4002 41.2 29.3002 41.3 29.0002C41.8 27.8002 42.3 26.5002 42.7 25.3002C42.7 25.2002 42.7 25.1002 42.8 24.9002C42.2 24.9002 41.7 24.9002 41.2 24.9002C40.2 24.9002 40.2 24.9002 39.9 25.9002C39.9 26.0002 39.8 26.2002 39.8 26.3002C39.5 27.3002 39.1 28.3002 38.7 29.4002ZM42.3 13.9002C41.7 12.3002 40.9 10.9002 40 9.60019C40 9.50019 39.9 9.40018 39.8 9.40018C39.1 9.40018 38.4 9.40018 37.6 9.40018C37.6 9.50018 37.6 9.50019 37.6 9.60019C38.3 11.0002 38.9 12.3002 39.6 13.7002C39.6 13.8002 39.8 13.9002 39.9 13.9002C40.6 13.9002 41.4 13.9002 42.3 13.9002ZM39.2 8.70018V8.60019C36.7 5.50019 33.6 3.40018 29.7 2.30018C29.7 2.40018 29.8 2.40019 29.9 2.50019C32.6 4.00019 34.9 6.00019 36.8 8.50019C36.9 8.60019 37 8.70018 37.1 8.70018C37.8 8.70018 38.5 8.70018 39.2 8.70018ZM40.8 30.2002L40.7 30.1002C40 30.1002 39.4 30.1002 38.7 30.1002C38.4 30.1002 38.3 30.2002 38.1 30.4002C37.5 31.3002 36.9 32.2002 36.2 33.1002C36.1 33.2002 36.1 33.3002 36 33.5002C36.3 33.5002 36.6 33.5002 36.8 33.5002C38.2 33.5002 38.2 33.5002 39.1 32.4002C39.7 31.7002 40.2 31.0002 40.8 30.2002ZM37.3 34.3002V34.2002C36.8 34.2002 36.3 34.2002 35.8 34.2002C35.5 34.2002 35.2 34.3002 35 34.5002C33.5 36.0002 31.9 37.3002 30 38.3002C29.9 38.4002 29.8 38.4002 29.7 38.5002C32.6 37.8002 35.1 36.3002 37.3 34.3002Z" fill="url(#paint0_linear_103_10)"/>
<path d="M10.16 16.288L10.32 14.8H12.848C13.296 14.8 13.6587 14.9387 13.936 15.216C14.2133 15.4827 14.352 15.84 14.352 16.288V21.296C14.352 21.5307 14.304 21.744 14.208 21.936C14.112 22.1173 13.984 22.272 13.824 22.4L14.848 26H13.312L12.4 22.784H11.92V26H10.4V16.288H10.16ZM12.752 16.288H11.92V21.296H12.752C12.8053 21.296 12.832 21.2693 12.832 21.216V16.368C12.832 16.3147 12.8053 16.288 12.752 16.288ZM19.8875 24.576C19.8875 25.024 19.7488 25.3867 19.4715 25.664C19.1942 25.9307 18.8315 26.064 18.3835 26.064H17.3915C16.9435 26.064 16.5808 25.9307 16.3035 25.664C16.0262 25.3867 15.8875 25.024 15.8875 24.576V16.288H15.6475L15.8075 14.8H17.4075V24.496C17.4075 24.5493 17.4342 24.576 17.4875 24.576H18.2875C18.3408 24.576 18.3675 24.5493 18.3675 24.496V14.832H19.8875V24.576ZM22.8463 22.8V24.496C22.8463 24.5493 22.8729 24.576 22.9263 24.576H23.5663C23.6196 24.576 23.6463 24.5493 23.6463 24.496V21.616L22.3823 21.056C22.2863 21.024 22.1529 20.9707 21.9823 20.896C21.8116 20.8107 21.6569 20.688 21.5183 20.528C21.3903 20.368 21.3263 20.1493 21.3263 19.872V16.224C21.3263 15.776 21.4649 15.4187 21.7423 15.152C22.0196 14.8747 22.3823 14.736 22.8303 14.736H23.6623C24.1103 14.736 24.4729 14.8747 24.7503 15.152C25.0276 15.4187 25.1663 15.776 25.1663 16.224V18.592L23.6463 18.464V16.304C23.6463 16.2507 23.6196 16.224 23.5663 16.224H22.9263C22.8729 16.224 22.8463 16.2507 22.8463 16.304V19.648L24.1103 20.208C24.2063 20.2507 24.3396 20.3093 24.5103 20.384C24.6809 20.4587 24.8303 20.576 24.9583 20.736C25.0969 20.896 25.1663 21.1147 25.1663 21.392V24.576C25.1663 25.024 25.0276 25.3867 24.7503 25.664C24.4729 25.9307 24.1103 26.064 23.6623 26.064H22.8303C22.3823 26.064 22.0196 25.9307 21.7423 25.664C21.4649 25.3867 21.3263 25.024 21.3263 24.576V22.8H22.8463ZM30.8487 24.512C30.8487 24.96 30.7101 25.3227 30.4327 25.6C30.1554 25.8667 29.7927 26 29.3447 26H26.6887V16.288H26.4487L26.6087 14.8H29.3447C29.7927 14.8 30.1554 14.9387 30.4327 15.216C30.7101 15.4827 30.8487 15.84 30.8487 16.288V24.512ZM29.2487 16.288H28.2087V24.512H29.2487C29.3021 24.512 29.3287 24.4853 29.3287 24.432V16.368C29.3287 16.3147 29.3021 16.288 29.2487 16.288Z" fill="url(#paint1_linear_103_10)"/>
<defs>
<linearGradient id="paint0_linear_103_10" x1="22.4687" y1="0.0107422" x2="22.4687" y2="40.8002" gradientUnits="userSpaceOnUse">
<stop stop-color="#1CA7FB"/>
<stop offset="1" stop-color="#17FCD7"/>
</linearGradient>
<linearGradient id="paint1_linear_103_10" x1="21" y1="12" x2="21" y2="28" gradientUnits="userSpaceOnUse">
<stop stop-color="#1CA7FB"/>
<stop offset="1" stop-color="#17FCD7"/>
</linearGradient>
</defs>
</svg>
