<svg width="63" height="64" viewBox="0 0 63 64" fill="none" xmlns="http://www.w3.org/2000/svg">
<path d="M21.5435 14.7264L14.8257 5.4391C19.1434 2.64279 24.2099 0.92858 29.6366 0.601074V12.0792C26.6976 12.3464 23.9509 13.2836 21.5435 14.7264Z" fill="#17FCD7" stroke="black"/>
<path d="M13.5782 23.8114L2.69446 20.244C4.6308 15.2713 7.81161 10.9251 11.8645 7.59766L18.5826 16.8851C16.4358 18.781 14.7188 21.1441 13.5782 23.8114Z" fill="#17FCD7" stroke="black"/>
<path d="M12.4411 35.8468L1.55924 39.3931C0.911061 36.8921 0.569153 34.2775 0.569153 31.5662C0.569153 28.8549 0.911061 26.2403 1.55924 23.7393L12.441 27.2855C12.1297 28.6586 11.9662 30.0857 11.9662 31.5662C11.9662 33.0267 12.1297 34.4695 12.4411 35.8468Z" fill="#17FCD7" stroke="black"/>
<path d="M18.5835 46.2903L11.8658 55.5567C7.83055 52.2287 4.632 47.8827 2.69489 42.912L13.5779 39.3652C14.7211 42.034 16.4551 44.3962 18.5835 46.2903Z" fill="#17FCD7" stroke="black"/>
<path d="M29.6366 51.0723V62.5537C24.1913 62.2266 19.1427 60.5124 14.8257 57.7156L21.5436 48.4282C23.9536 49.8704 26.7007 50.7894 29.6366 51.0723Z" fill="#17FCD7" stroke="black"/>
<path d="M41.402 48.4287L48.1187 57.7144C43.7997 60.4933 38.7333 62.2252 33.3089 62.554V51.0759C36.2479 50.8087 38.9946 49.8715 41.402 48.4287Z" fill="#17FCD7" stroke="black"/>
<path d="M49.3671 39.3208L60.2508 42.8882C58.3144 47.8609 55.1336 52.2072 51.0807 55.5346L44.3627 46.2471C46.5094 44.3513 48.2263 41.9881 49.3671 39.3208Z" fill="#17FCD7" stroke="black"/>
<path d="M50.5048 27.2855L61.3866 23.7393C62.0349 26.2403 62.3767 28.8549 62.3767 31.5662C62.3767 34.2774 62.0349 36.8921 61.3866 39.3931L50.5049 35.8468C50.8162 34.4738 50.9797 33.0467 50.9797 31.5662C50.9797 30.1057 50.8162 28.6628 50.5048 27.2855Z" fill="#17FCD7" stroke="black"/>
<path d="M44.384 16.865L51.1016 7.59863C55.1369 10.9266 58.3355 15.2727 60.2726 20.2433L49.3895 23.7901C48.2464 21.1213 46.5124 18.7592 44.384 16.865Z" fill="#17FCD7" stroke="black"/>
<path d="M33.3089 12.0793V0.601074C38.7543 0.928247 43.8028 2.6424 48.1198 5.43919L41.402 14.7265C38.9946 13.2837 36.2479 12.3465 33.3089 12.0793Z" fill="#17FCD7" stroke="black"/>
<path d="M18.9828 33.5663H19.7681L19.3043 32.93L18.8914 32.3636C19.0465 32.2217 19.1718 32.0474 19.263 31.8431L19.2645 31.8397C19.3519 31.6392 19.3905 31.4357 19.3905 31.2426C19.3905 31.0256 19.3357 30.8348 19.2726 30.6655L19.2681 30.6537L19.263 30.6423C19.1056 30.2896 18.8431 30.0098 18.4706 29.8463C18.2751 29.7556 18.0795 29.7183 17.8722 29.7183H15.549H15.1506V30.1183V30.7965V31.1965H15.549H17.8722C17.8772 31.1965 17.8811 31.1968 17.8839 31.197C17.8996 31.2151 17.905 31.2259 17.9066 31.2298C17.9078 31.2327 17.9087 31.2355 17.9087 31.2426C17.9087 31.2471 17.9082 31.2501 17.9082 31.2501L17.9078 31.2513C17.9078 31.2513 17.9072 31.2528 17.9057 31.2551C17.9041 31.2575 17.901 31.2613 17.8959 31.2665C17.8907 31.2716 17.8869 31.2746 17.8846 31.2763C17.8823 31.2778 17.8808 31.2785 17.8808 31.2785L17.8796 31.2788C17.8796 31.2788 17.8765 31.2794 17.8722 31.2794H15.549H15.1506V31.6794V33.1663V33.5663H15.549H16.2247H16.6231V33.1663V32.7671H17.3481L17.821 33.4051L17.9405 33.5663H18.1406H18.9828Z" fill="#17FCD7" stroke="black" stroke-width="0.7"/>
<path d="M23.5827 33.5663H24.2612L23.9307 32.9714L22.237 29.9233L22.1229 29.7183H21.889H21.2967H21.0634L20.9493 29.9225L19.2462 32.9706L18.9134 33.5663H19.5937H20.3711H20.6043L20.7184 33.3621L21.5916 31.8016L22.4573 33.361L22.5713 33.5663H22.8053H23.5827Z" fill="#17FCD7" stroke="black" stroke-width="0.7"/>
<path d="M28.1827 33.5663H28.5811V33.1663V30.1183V29.7183H28.1827H27.4145H27.2077L27.0887 29.888L26.1848 31.1778L25.2885 29.8891L25.1695 29.7183H24.9618H24.1936H23.7952V30.1183V33.157V33.557H24.1936H24.8785H25.2769V33.157V32.4372L25.5888 32.8845L25.7077 33.0552H25.9151H26.4705H26.6778L26.7969 32.8845L27.1087 32.4372V33.1663V33.5663H27.5071H28.1827Z" fill="#17FCD7" stroke="black" stroke-width="0.7"/>
<path d="M32.5794 31.2152H32.8571V30.8152V30.1275V29.7275H32.4587H29.0249H28.6265V30.1275V30.8152V31.2152H28.8949V31.3078V31.9862V32.088H28.6265V32.488V33.1664V33.5664H29.0249H32.4587H32.8571V33.1664V32.488V32.088H32.5794V31.9862V31.3078V31.2152Z" fill="#17FCD7" stroke="black" stroke-width="0.7"/>
<path d="M32.7359 32.2278C32.7359 32.4115 32.7745 32.6028 32.8597 32.7754C33.0134 33.0952 33.2643 33.3349 33.6021 33.4653C33.7608 33.5267 33.9389 33.5664 34.1246 33.5664H35.5869C35.7767 33.5664 35.9429 33.5246 36.1016 33.4715L36.1102 33.4686L36.1187 33.4653C36.4574 33.3346 36.7088 33.0937 36.8624 32.7726L36.8649 32.7672C36.9431 32.597 36.9849 32.4193 36.9849 32.2278C36.9849 32.0395 36.9445 31.8581 36.861 31.6894C36.8194 31.6028 36.7705 31.522 36.7148 31.4476H36.9757V31.0476C36.9757 30.8638 36.9371 30.6725 36.8518 30.5C36.7 30.184 36.453 29.946 36.1212 29.8146C35.936 29.7315 35.7492 29.709 35.5869 29.709H34.1246C33.9279 29.709 33.7588 29.7494 33.6021 29.81C33.2634 29.9409 33.0119 30.1817 32.8584 30.5028L32.8559 30.5083C32.7777 30.6784 32.7359 30.8562 32.7359 31.0476C32.7359 31.2314 32.7745 31.4227 32.8597 31.5952C32.8997 31.6784 32.9461 31.7561 32.9991 31.8278H32.7359V32.2278Z" fill="#17FCD7" stroke="black" stroke-width="0.7"/>
<path d="M38.993 33.5663H39.3914V33.1663V31.1965H40.0944H40.4927V30.7965V30.1183V29.7183H40.0944H37.2066H36.8082V30.1183V30.7965V31.1965H37.2066H37.9189V33.1663V33.5663H38.3173H38.993Z" fill="#17FCD7" stroke="black" stroke-width="0.7"/>
<path d="M42.6026 33.5663H43.001V33.1663V31.1965H43.704H44.1024V30.7965V30.1183V29.7183H43.704H40.8164H40.418V30.1183V30.7965V31.1965H40.8164H41.5286V33.1663V33.5663H41.9269H42.6026Z" fill="#17FCD7" stroke="black" stroke-width="0.7"/>
<path d="M47.3414 33.5663H48.0216L47.6888 32.9706L45.9858 29.9225L45.8717 29.7183H45.6383H45.046H44.8121L44.6981 29.9233L43.0043 32.9714L42.6738 33.5663H43.3523H44.1297H44.3629L44.4771 33.3621L45.3501 31.8016L46.2159 33.361L46.3298 33.5663H46.5638H47.3414Z" fill="#17FCD7" stroke="black" stroke-width="0.7"/>
</svg>
